<svg width="62" height="41" viewBox="0 0 62 41" fill="none" xmlns="http://www.w3.org/2000/svg">
<rect width="62" height="41" rx="5" fill="#27346A"/>
<rect width="62" height="41" rx="5" stroke="black"/>
<path d="M38.2976 12.496C34.8736 12.496 31.8138 14.2564 31.8138 17.5088C31.8138 21.2388 37.2405 21.4964 37.2405 23.3702C37.2405 24.1592 36.3289 24.8655 34.7721 24.8655C32.5626 24.8655 30.9112 23.8786 30.9112 23.8786L30.2046 27.1607C30.2046 27.1607 32.107 27.9943 34.6327 27.9943C38.3761 27.9943 41.3218 26.1475 41.3218 22.8394C41.3218 18.8981 35.8725 18.6481 35.8725 16.9089C35.8725 16.2908 36.6208 15.6136 38.1732 15.6136C39.9248 15.6136 41.3538 16.3313 41.3538 16.3313L42.0454 13.1614C42.0454 13.1614 40.4904 12.496 38.2976 12.496V12.496ZM6.97158 12.7352L6.88867 13.2137C6.88867 13.2137 8.32914 13.4752 9.62652 13.9968C11.297 14.595 11.416 14.9432 11.6973 16.0248L14.763 27.7476H18.8726L25.2038 12.7352H21.1036L17.0355 22.9422L15.3754 14.2903C15.2232 13.3001 14.452 12.7352 13.5081 12.7352H6.97158V12.7352ZM26.8525 12.7352L23.6361 27.7476H27.5459L30.7511 12.7352H26.8525V12.7352ZM48.6592 12.7352C47.7163 12.7352 47.2168 13.2359 46.8503 14.1109L41.1221 27.7476H45.2222L46.0155 25.4748H51.0107L51.4931 27.7476H55.1109L51.9547 12.7352H48.6592V12.7352ZM49.1924 16.7911L50.4078 22.4245H47.1517L49.1924 16.7911V16.7911Z" fill="white"/>
</svg>
