<svg width="62" height="41" viewBox="0 0 62 41" fill="none" xmlns="http://www.w3.org/2000/svg">
<rect width="62" height="41" rx="5" fill="white"/>
<path d="M29.8649 20.1458V25.4665H28.3076V12.3079H32.3565C33.3428 12.3079 34.2771 12.7083 35.0039 13.4521C35.7306 14.1386 36.0939 15.1684 36.0939 16.2554C36.0939 17.3425 35.7306 18.315 35.0039 19.0588C34.2771 19.8025 33.3947 20.203 32.3565 20.203L29.8649 20.1458ZM29.8649 13.9098V18.4867H32.4603C33.0313 18.4867 33.6023 18.2578 33.9657 17.8001C34.7962 16.942 34.7962 15.5117 34.0176 14.6535L33.9657 14.5963C33.5504 14.1386 33.0313 13.8526 32.4603 13.9098H29.8649Z" fill="black"/>
<path d="M39.6755 16.1982C40.8175 16.1982 41.6999 16.5415 42.3747 17.228C43.0495 17.9146 43.361 18.83 43.361 19.9742V25.4665H41.9075V24.2078H41.8556C41.2327 25.2376 40.3503 25.7525 39.3121 25.7525C38.4296 25.7525 37.651 25.4665 37.0281 24.8944C36.4571 24.3222 36.0938 23.5213 36.0938 22.6631C36.0938 21.7477 36.4052 21.004 37.0281 20.4319C37.651 19.8598 38.5335 19.6309 39.5716 19.6309C40.506 19.6309 41.2327 19.8026 41.8037 20.203V19.8026C41.8037 19.2304 41.5961 18.6583 41.1808 18.3151C40.7655 17.9146 40.2465 17.6857 39.6755 17.6857C38.793 17.6857 38.1182 18.0862 37.651 18.8872L36.3014 17.9718C37.1319 16.7704 38.222 16.1982 39.6755 16.1982ZM37.7029 22.7203C37.7029 23.178 37.9106 23.5785 38.222 23.8073C38.5854 24.0934 39.0006 24.265 39.4159 24.265C40.0388 24.265 40.6617 23.979 41.1289 23.4641C41.648 22.9492 41.9075 22.3199 41.9075 21.6333C41.4404 21.2328 40.7655 21.004 39.8831 21.004C39.2602 21.004 38.7411 21.1756 38.3258 21.5189C37.9106 21.8049 37.7029 22.2054 37.7029 22.7203Z" fill="black"/>
<path d="M51.7708 16.4844L46.6318 29.4713H45.0745L46.9952 24.9516L43.6211 16.5416H45.2822L47.7219 23.0065H47.7738L50.1616 16.5416H51.7708V16.4844Z" fill="black"/>
<path d="M23.6881 19.0015C23.6881 18.4866 23.6362 17.9717 23.5843 17.4568H17.0957V20.3746H20.7812C20.6255 21.2899 20.1583 22.1481 19.4316 22.663V24.551H21.6637C22.9614 23.2351 23.6881 21.2899 23.6881 19.0015Z" fill="#4285F4"/>
<path d="M17.095 26.3819C18.9637 26.3819 20.5209 25.6953 21.6629 24.5511L19.4309 22.6631C18.808 23.1208 18.0293 23.4069 17.095 23.4069C15.3301 23.4069 13.7728 22.091 13.2537 20.2603H10.9697V22.2054C12.1636 24.7799 14.4995 26.3819 17.095 26.3819Z" fill="#34A853"/>
<path d="M13.2542 20.2602C12.9427 19.3448 12.9427 18.315 13.2542 17.3424V15.3972H10.9702C9.9839 17.514 9.9839 20.0313 10.9702 22.2054L13.2542 20.2602Z" fill="#FBBC04"/>
<path d="M17.0958 14.253C18.0821 14.253 19.0164 14.6534 19.7431 15.3972L21.7157 13.2232C20.4699 11.9645 18.8088 11.2208 17.1477 11.278C14.5523 11.278 12.1645 12.8799 11.0225 15.4544L13.3064 17.3996C13.7736 15.5688 15.3309 14.253 17.0958 14.253Z" fill="#EA4335"/>
</svg>
