<svg width="682" height="887" viewBox="0 0 682 887" fill="none" xmlns="http://www.w3.org/2000/svg">
<g filter="url(#filter0_d_55_153)">
<path fill-rule="evenodd" clip-rule="evenodd" d="M57.0698 58.4947C53.4395 65.6197 53.4395 74.9467 53.4395 93.6009V819.712H70.0933C70.0933 811.434 76.8039 804.723 85.0819 804.723C93.3598 804.723 100.07 811.434 100.07 819.712H113.394C113.394 811.434 120.104 804.723 128.382 804.723C136.66 804.723 143.371 811.434 143.371 819.712H156.694C156.694 811.434 163.404 804.723 171.682 804.723C179.96 804.723 186.671 811.434 186.671 819.712H199.994C199.994 811.434 206.705 804.723 214.982 804.723C223.26 804.723 229.971 811.434 229.971 819.712H243.294C243.294 811.434 250.005 804.723 258.283 804.723C266.561 804.723 273.271 811.434 273.271 819.712H286.594C286.594 811.434 293.305 804.723 301.583 804.723C309.861 804.723 316.571 811.434 316.571 819.712H329.895C329.895 811.434 336.605 804.723 344.883 804.723C353.161 804.723 359.872 811.434 359.872 819.712H373.195C373.195 811.434 379.905 804.723 388.183 804.723C396.461 804.723 403.172 811.434 403.172 819.712H416.495C416.495 811.434 423.206 804.723 431.483 804.723C439.761 804.723 446.472 811.434 446.472 819.712H459.795C459.795 811.434 466.506 804.723 474.784 804.723C483.062 804.723 489.772 811.434 489.772 819.712H503.095C503.095 811.434 509.806 804.723 518.084 804.723C526.362 804.723 533.072 811.434 533.072 819.712H546.396C546.396 811.434 553.106 804.723 561.384 804.723C569.662 804.723 576.373 811.434 576.373 819.712H589.696C589.696 811.434 596.406 804.723 604.684 804.723C612.962 804.723 619.673 811.434 619.673 819.712H628V93.6009C628 74.9468 628 65.6197 624.369 58.4947C621.176 52.2275 616.081 47.132 609.813 43.9387C602.688 40.3083 593.361 40.3083 574.707 40.3083H106.732C88.0779 40.3083 78.7508 40.3083 71.6259 43.9387C65.3586 47.132 60.2631 52.2275 57.0698 58.4947Z" fill="#D9D9D9"/>
</g>
<defs>
<filter id="filter0_d_55_153" x="0.1469" y="0.338935" width="681.146" height="885.989" filterUnits="userSpaceOnUse" color-interpolation-filters="sRGB">
<feFlood flood-opacity="0" result="BackgroundImageFix"/>
<feColorMatrix in="SourceAlpha" type="matrix" values="0 0 0 0 0 0 0 0 0 0 0 0 0 0 0 0 0 0 127 0" result="hardAlpha"/>
<feOffset dy="13.3231"/>
<feGaussianBlur stdDeviation="26.6463"/>
<feComposite in2="hardAlpha" operator="out"/>
<feColorMatrix type="matrix" values="0 0 0 0 0 0 0 0 0 0 0 0 0 0 0 0 0 0 0.16 0"/>
<feBlend mode="normal" in2="BackgroundImageFix" result="effect1_dropShadow_55_153"/>
<feBlend mode="normal" in="SourceGraphic" in2="effect1_dropShadow_55_153" result="shape"/>
</filter>
</defs>
</svg>
